<svg width="39" height="30" viewBox="0 0 39 30" fill="none" xmlns="http://www.w3.org/2000/svg">
<g clip-path="url(#clip0_317_794)">
<rect width="39" height="30" fill="white"/>
<path fill-rule="evenodd" clip-rule="evenodd" d="M29.9 8C29.9 7.44772 29.4523 7 28.9 7H10.1C9.54772 7 9.10001 7.44772 9.10001 8V11.1465C9.10001 11.3864 9.18625 11.6183 9.343 11.7999L15.357 18.7674C15.5138 18.949 15.6 19.1809 15.6 19.4208V30.3688C15.6 30.7199 15.9525 30.9617 16.2801 30.8352L23.0801 28.2091C23.2729 28.1347 23.4 27.9494 23.4 27.7427V19.4208C23.4 19.1809 23.4862 18.949 23.643 18.7674L29.657 11.7999C29.8138 11.6183 29.9 11.3864 29.9 11.1465V8Z" fill="#5D5656"/>
<path d="M16.2801 30.8352L16.064 30.2755H16.064L16.2801 30.8352ZM23.0801 28.2091L23.2963 28.7689L23.0801 28.2091ZM9.343 11.7999L8.8888 12.1919L9.343 11.7999ZM10.1 7.6H28.9V6.4H10.1V7.6ZM9.70001 11.1465V8H8.50001V11.1465H9.70001ZM15.8112 18.3754L9.7972 11.4078L8.8888 12.1919L14.9028 19.1594L15.8112 18.3754ZM15 19.4208V30.3688H16.2V19.4208H15ZM15 30.3688C15 31.1414 15.7756 31.6732 16.4963 31.3949L16.064 30.2755C16.1295 30.2502 16.2 30.2985 16.2 30.3688H15ZM16.4963 31.3949L23.2963 28.7689L22.864 27.6494L16.064 30.2755L16.4963 31.3949ZM23.2963 28.7689C23.7204 28.6051 24 28.1973 24 27.7427H22.8C22.8 27.7014 22.8254 27.6643 22.864 27.6494L23.2963 28.7689ZM24 27.7427V19.4208H22.8V27.7427H24ZM29.2028 11.4078L23.1888 18.3754L24.0972 19.1594L30.1112 12.1919L29.2028 11.4078ZM29.3 8V11.1465H30.5V8H29.3ZM30.1112 12.1919C30.362 11.9013 30.5 11.5303 30.5 11.1465H29.3C29.3 11.2424 29.2655 11.3352 29.2028 11.4078L30.1112 12.1919ZM24 19.4208C24 19.3248 24.0345 19.2321 24.0972 19.1594L23.1888 18.3754C22.938 18.6659 22.8 19.037 22.8 19.4208H24ZM14.9028 19.1594C14.9655 19.2321 15 19.3249 15 19.4208H16.2C16.2 19.037 16.062 18.6659 15.8112 18.3754L14.9028 19.1594ZM8.50001 11.1465C8.50001 11.5303 8.63799 11.9013 8.8888 12.1919L9.7972 11.4078C9.7345 11.3352 9.70001 11.2424 9.70001 11.1465H8.50001ZM28.9 7.6C29.1209 7.6 29.3 7.77909 29.3 8H30.5C30.5 7.11634 29.7837 6.4 28.9 6.4V7.6ZM10.1 6.4C9.21635 6.4 8.50001 7.11634 8.50001 8H9.70001C9.70001 7.77909 9.87909 7.6 10.1 7.6V6.4Z" fill="white"/>
</g>
<defs>
<clipPath id="clip0_317_794">
<rect width="39" height="30" fill="white"/>
</clipPath>
</defs>
</svg>
