<svg width="23" height="24" viewBox="0 0 23 24" fill="none" xmlns="http://www.w3.org/2000/svg">
<path fill-rule="evenodd" clip-rule="evenodd" d="M21.9 2C21.9 1.44772 21.4523 1 20.9 1H2.10001C1.54772 1 1.10001 1.44772 1.10001 2V5.14646C1.10001 5.38636 1.18625 5.61826 1.343 5.79987L7.35701 12.7674C7.51376 12.949 7.60001 13.1809 7.60001 13.4208V24.3688C7.60001 24.7199 7.95253 24.9617 8.28013 24.8352L15.0801 22.2091C15.2729 22.1347 15.4 21.9494 15.4 21.7427V13.4208C15.4 13.1809 15.4862 12.949 15.643 12.7674L21.657 5.79987C21.8138 5.61826 21.9 5.38636 21.9 5.14646V2Z" fill="#5D5656"/>
<path d="M8.28013 24.8352L8.06398 24.2755H8.06398L8.28013 24.8352ZM15.0801 22.2091L15.2963 22.7689L15.0801 22.2091ZM1.343 5.79987L0.888796 6.19191L1.343 5.79987ZM2.10001 1.6H20.9V0.4H2.10001V1.6ZM1.70001 5.14646V2H0.500006V5.14646H1.70001ZM7.81122 12.3754L1.7972 5.40782L0.888796 6.19191L6.90281 13.1594L7.81122 12.3754ZM7.00001 13.4208V24.3688H8.20001V13.4208H7.00001ZM7.00001 24.3688C7.00001 25.1414 7.77557 25.6732 8.49629 25.3949L8.06398 24.2755C8.1295 24.2502 8.20001 24.2985 8.20001 24.3688H7.00001ZM8.49628 25.3949L15.2963 22.7689L14.864 21.6494L8.06398 24.2755L8.49628 25.3949ZM15.2963 22.7689C15.7204 22.6051 16 22.1973 16 21.7427H14.8C14.8 21.7014 14.8254 21.6643 14.864 21.6494L15.2963 22.7689ZM16 21.7427V13.4208H14.8V21.7427H16ZM21.2028 5.40782L15.1888 12.3754L16.0972 13.1594L22.1112 6.19191L21.2028 5.40782ZM21.3 2V5.14646H22.5V2H21.3ZM22.1112 6.19191C22.362 5.90134 22.5 5.5303 22.5 5.14646H21.3C21.3 5.24242 21.2655 5.33518 21.2028 5.40782L22.1112 6.19191ZM16 13.4208C16 13.3248 16.0345 13.2321 16.0972 13.1594L15.1888 12.3754C14.938 12.6659 14.8 13.037 14.8 13.4208H16ZM6.90281 13.1594C6.96551 13.2321 7.00001 13.3249 7.00001 13.4208H8.20001C8.20001 13.037 8.06202 12.6659 7.81122 12.3754L6.90281 13.1594ZM0.500006 5.14646C0.500006 5.5303 0.637993 5.90134 0.888796 6.19191L1.7972 5.40782C1.7345 5.33518 1.70001 5.24242 1.70001 5.14646H0.500006ZM20.9 1.6C21.1209 1.6 21.3 1.77909 21.3 2H22.5C22.5 1.11634 21.7837 0.4 20.9 0.4V1.6ZM2.10001 0.4C1.21635 0.4 0.500006 1.11634 0.500006 2H1.70001C1.70001 1.77909 1.87909 1.6 2.10001 1.6V0.4Z" fill="white"/>
</svg>
