<svg width="188" height="201" viewBox="0 0 188 201" fill="none" xmlns="http://www.w3.org/2000/svg">
<g clip-path="url(#clip0_2_8)">
<rect width="188" height="201" fill="white"/>
<path d="M23.9062 171.672L19.3438 190H14.0469L21.125 167.25H24.4219L23.9062 171.672ZM27.5 190L22.9219 171.672L22.3281 167.25H25.6875L32.7969 190H27.5ZM27.6719 181.516V185.531H17.5938V181.516H27.6719ZM38.5938 176.641V190H33.8438V173.094H38.2969L38.5938 176.641ZM37.9844 180.969L36.7969 181C36.776 179.812 36.8802 178.719 37.1094 177.719C37.3385 176.719 37.6823 175.849 38.1406 175.109C38.6094 174.37 39.1927 173.797 39.8906 173.391C40.5885 172.984 41.4062 172.781 42.3438 172.781C42.9479 172.781 43.5052 172.896 44.0156 173.125C44.526 173.344 44.9635 173.693 45.3281 174.172C45.7031 174.641 45.9896 175.255 46.1875 176.016C46.3958 176.766 46.5 177.667 46.5 178.719V190H41.75V179.328C41.75 178.589 41.6875 178.031 41.5625 177.656C41.4479 177.271 41.276 177.005 41.0469 176.859C40.8177 176.714 40.526 176.641 40.1719 176.641C39.8281 176.641 39.5156 176.75 39.2344 176.969C38.9531 177.188 38.7188 177.495 38.5312 177.891C38.3438 178.276 38.2031 178.734 38.1094 179.266C38.0156 179.786 37.974 180.354 37.9844 180.969ZM46 180.75L44.5156 180.875C44.4948 179.719 44.5885 178.651 44.7969 177.672C45.0156 176.693 45.349 175.839 45.7969 175.109C46.2552 174.37 46.8229 173.797 47.5 173.391C48.1875 172.984 48.9948 172.781 49.9219 172.781C50.5885 172.781 51.1927 172.896 51.7344 173.125C52.2865 173.354 52.7604 173.724 53.1562 174.234C53.5521 174.734 53.8594 175.401 54.0781 176.234C54.2969 177.068 54.4062 178.089 54.4062 179.297V190H49.6406V179.297C49.6406 178.568 49.5781 178.016 49.4531 177.641C49.3385 177.255 49.1615 176.995 48.9219 176.859C48.6927 176.714 48.4167 176.641 48.0938 176.641C47.7292 176.641 47.4167 176.745 47.1562 176.953C46.9062 177.161 46.6927 177.453 46.5156 177.828C46.3385 178.203 46.2083 178.641 46.125 179.141C46.0417 179.63 46 180.167 46 180.75ZM64.75 185.922V178.312C64.75 177.812 64.7031 177.427 64.6094 177.156C64.5156 176.875 64.3698 176.672 64.1719 176.547C63.974 176.422 63.7135 176.359 63.3906 176.359C63.0781 176.359 62.8177 176.432 62.6094 176.578C62.401 176.714 62.25 176.922 62.1562 177.203C62.0729 177.474 62.0312 177.818 62.0312 178.234H57.2656C57.2656 177.474 57.4115 176.766 57.7031 176.109C57.9948 175.443 58.4167 174.859 58.9688 174.359C59.5208 173.859 60.1823 173.474 60.9531 173.203C61.7344 172.922 62.6094 172.781 63.5781 172.781C64.7135 172.781 65.7292 172.969 66.625 173.344C67.5208 173.719 68.2292 174.318 68.75 175.141C69.2708 175.953 69.5312 177.026 69.5312 178.359V185.812C69.5312 186.844 69.5833 187.651 69.6875 188.234C69.8021 188.807 69.9583 189.307 70.1562 189.734V190H65.3906C65.1719 189.5 65.0104 188.885 64.9062 188.156C64.8021 187.427 64.75 186.682 64.75 185.922ZM65.3125 179.672L65.3281 182.391H63.8594C63.4844 182.391 63.1615 182.464 62.8906 182.609C62.6302 182.755 62.4115 182.953 62.2344 183.203C62.0573 183.443 61.9271 183.719 61.8438 184.031C61.7604 184.344 61.7188 184.672 61.7188 185.016C61.7188 185.443 61.7708 185.781 61.875 186.031C61.9896 186.271 62.1406 186.443 62.3281 186.547C62.5156 186.651 62.7344 186.703 62.9844 186.703C63.4219 186.703 63.7917 186.615 64.0938 186.438C64.4062 186.25 64.6354 186.026 64.7812 185.766C64.9271 185.505 64.9688 185.276 64.9062 185.078L65.7031 186.953C65.5469 187.339 65.3698 187.729 65.1719 188.125C64.9844 188.51 64.7448 188.87 64.4531 189.203C64.1719 189.536 63.8229 189.802 63.4062 190C62.9896 190.208 62.4792 190.312 61.875 190.312C60.9792 190.312 60.1562 190.12 59.4062 189.734C58.6667 189.349 58.0729 188.781 57.625 188.031C57.1875 187.281 56.9688 186.37 56.9688 185.297C56.9688 184.474 57.099 183.719 57.3594 183.031C57.6198 182.344 58.0208 181.75 58.5625 181.25C59.1042 180.75 59.8073 180.365 60.6719 180.094C61.5469 179.812 62.5938 179.672 63.8125 179.672H65.3125ZM77.1406 176.703V190H72.375V173.094H76.8438L77.1406 176.703ZM76.5156 180.969L75.3594 181C75.3385 179.719 75.4531 178.573 75.7031 177.562C75.9635 176.552 76.3385 175.693 76.8281 174.984C77.3281 174.266 77.9167 173.719 78.5938 173.344C79.2812 172.969 80.0469 172.781 80.8906 172.781C81.5365 172.781 82.1302 172.896 82.6719 173.125C83.224 173.354 83.6979 173.724 84.0938 174.234C84.4896 174.734 84.7969 175.401 85.0156 176.234C85.2344 177.068 85.3438 178.094 85.3438 179.312V190H80.5781V179.281C80.5781 178.583 80.5104 178.047 80.375 177.672C80.2396 177.286 80.0365 177.021 79.7656 176.875C79.5052 176.719 79.1667 176.641 78.75 176.641C78.3646 176.641 78.026 176.755 77.7344 176.984C77.4531 177.203 77.2188 177.505 77.0312 177.891C76.8438 178.276 76.7083 178.734 76.625 179.266C76.5521 179.786 76.5156 180.354 76.5156 180.969ZM96.3438 186.203V166H101.109V190L96.8281 190.016L96.3438 186.203ZM87.7344 182.25V180.922C87.7344 179.536 87.849 178.333 88.0781 177.312C88.3177 176.292 88.6667 175.448 89.125 174.781C89.5938 174.104 90.1719 173.604 90.8594 173.281C91.5573 172.948 92.3542 172.781 93.25 172.781C94.0417 172.781 94.724 172.99 95.2969 173.406C95.8802 173.812 96.375 174.385 96.7812 175.125C97.1875 175.865 97.5156 176.734 97.7656 177.734C98.026 178.734 98.2135 179.818 98.3281 180.984V182.344C98.1927 183.438 98 184.469 97.75 185.438C97.5 186.396 97.1719 187.245 96.7656 187.984C96.3594 188.714 95.8646 189.286 95.2812 189.703C94.6979 190.109 94.0156 190.312 93.2344 190.312C92.3385 190.312 91.5469 190.141 90.8594 189.797C90.1719 189.453 89.5938 188.943 89.125 188.266C88.6667 187.589 88.3177 186.75 88.0781 185.75C87.849 184.74 87.7344 183.573 87.7344 182.25ZM92.4844 180.922V182.25C92.4844 183.01 92.5156 183.656 92.5781 184.188C92.6406 184.719 92.75 185.151 92.9062 185.484C93.0625 185.818 93.2708 186.062 93.5312 186.219C93.8021 186.365 94.1406 186.438 94.5469 186.438C95.0781 186.438 95.5104 186.292 95.8438 186C96.1875 185.698 96.4375 185.281 96.5938 184.75C96.75 184.219 96.8229 183.594 96.8125 182.875V180.438C96.8229 179.833 96.776 179.297 96.6719 178.828C96.5781 178.349 96.4375 177.948 96.25 177.625C96.0625 177.302 95.8281 177.057 95.5469 176.891C95.2656 176.724 94.9375 176.641 94.5625 176.641C94.1771 176.641 93.849 176.719 93.5781 176.875C93.3073 177.031 93.0938 177.281 92.9375 177.625C92.7812 177.958 92.6667 178.396 92.5938 178.938C92.5208 179.479 92.4844 180.141 92.4844 180.922ZM111.406 185.922V178.312C111.406 177.812 111.359 177.427 111.266 177.156C111.172 176.875 111.026 176.672 110.828 176.547C110.63 176.422 110.37 176.359 110.047 176.359C109.734 176.359 109.474 176.432 109.266 176.578C109.057 176.714 108.906 176.922 108.812 177.203C108.729 177.474 108.688 177.818 108.688 178.234H103.922C103.922 177.474 104.068 176.766 104.359 176.109C104.651 175.443 105.073 174.859 105.625 174.359C106.177 173.859 106.839 173.474 107.609 173.203C108.391 172.922 109.266 172.781 110.234 172.781C111.37 172.781 112.385 172.969 113.281 173.344C114.177 173.719 114.885 174.318 115.406 175.141C115.927 175.953 116.188 177.026 116.188 178.359V185.812C116.188 186.844 116.24 187.651 116.344 188.234C116.458 188.807 116.615 189.307 116.812 189.734V190H112.047C111.828 189.5 111.667 188.885 111.562 188.156C111.458 187.427 111.406 186.682 111.406 185.922ZM111.969 179.672L111.984 182.391H110.516C110.141 182.391 109.818 182.464 109.547 182.609C109.286 182.755 109.068 182.953 108.891 183.203C108.714 183.443 108.583 183.719 108.5 184.031C108.417 184.344 108.375 184.672 108.375 185.016C108.375 185.443 108.427 185.781 108.531 186.031C108.646 186.271 108.797 186.443 108.984 186.547C109.172 186.651 109.391 186.703 109.641 186.703C110.078 186.703 110.448 186.615 110.75 186.438C111.062 186.25 111.292 186.026 111.438 185.766C111.583 185.505 111.625 185.276 111.562 185.078L112.359 186.953C112.203 187.339 112.026 187.729 111.828 188.125C111.641 188.51 111.401 188.87 111.109 189.203C110.828 189.536 110.479 189.802 110.062 190C109.646 190.208 109.135 190.312 108.531 190.312C107.635 190.312 106.812 190.12 106.062 189.734C105.323 189.349 104.729 188.781 104.281 188.031C103.844 187.281 103.625 186.37 103.625 185.297C103.625 184.474 103.755 183.719 104.016 183.031C104.276 182.344 104.677 181.75 105.219 181.25C105.76 180.75 106.464 180.365 107.328 180.094C108.203 179.812 109.25 179.672 110.469 179.672H111.969ZM135.125 171.672L130.562 190H125.266L132.344 167.25H135.641L135.125 171.672ZM138.719 190L134.141 171.672L133.547 167.25H136.906L144.016 190H138.719ZM138.891 181.516V185.531H128.812V181.516H138.891ZM149.781 176.344V196.5H145.047V173.094H149.453L149.781 176.344ZM158.391 180.859V182.188C158.391 183.51 158.276 184.677 158.047 185.688C157.818 186.698 157.474 187.552 157.016 188.25C156.557 188.938 155.984 189.453 155.297 189.797C154.609 190.141 153.812 190.312 152.906 190.312C152.073 190.312 151.365 190.104 150.781 189.688C150.198 189.271 149.708 188.698 149.312 187.969C148.927 187.229 148.615 186.38 148.375 185.422C148.146 184.453 147.964 183.427 147.828 182.344V180.906C147.964 179.75 148.141 178.677 148.359 177.688C148.589 176.698 148.901 175.839 149.297 175.109C149.693 174.37 150.182 173.797 150.766 173.391C151.349 172.984 152.057 172.781 152.891 172.781C153.807 172.781 154.609 172.943 155.297 173.266C155.984 173.589 156.557 174.083 157.016 174.75C157.474 175.406 157.818 176.24 158.047 177.25C158.276 178.26 158.391 179.464 158.391 180.859ZM153.641 182.188V180.859C153.641 180.078 153.604 179.417 153.531 178.875C153.469 178.333 153.354 177.901 153.188 177.578C153.031 177.245 152.823 177.005 152.562 176.859C152.302 176.714 151.974 176.641 151.578 176.641C151.172 176.641 150.823 176.724 150.531 176.891C150.24 177.047 150.005 177.281 149.828 177.594C149.651 177.906 149.521 178.297 149.438 178.766C149.365 179.224 149.333 179.76 149.344 180.375V182.891C149.333 183.589 149.391 184.208 149.516 184.75C149.651 185.281 149.885 185.703 150.219 186.016C150.552 186.318 151.016 186.469 151.609 186.469C152.005 186.469 152.333 186.391 152.594 186.234C152.865 186.068 153.073 185.812 153.219 185.469C153.375 185.115 153.484 184.667 153.547 184.125C153.609 183.583 153.641 182.938 153.641 182.188ZM165.625 176.344V196.5H160.891V173.094H165.297L165.625 176.344ZM174.234 180.859V182.188C174.234 183.51 174.12 184.677 173.891 185.688C173.661 186.698 173.318 187.552 172.859 188.25C172.401 188.938 171.828 189.453 171.141 189.797C170.453 190.141 169.656 190.312 168.75 190.312C167.917 190.312 167.208 190.104 166.625 189.688C166.042 189.271 165.552 188.698 165.156 187.969C164.771 187.229 164.458 186.38 164.219 185.422C163.99 184.453 163.807 183.427 163.672 182.344V180.906C163.807 179.75 163.984 178.677 164.203 177.688C164.432 176.698 164.745 175.839 165.141 175.109C165.536 174.37 166.026 173.797 166.609 173.391C167.193 172.984 167.901 172.781 168.734 172.781C169.651 172.781 170.453 172.943 171.141 173.266C171.828 173.589 172.401 174.083 172.859 174.75C173.318 175.406 173.661 176.24 173.891 177.25C174.12 178.26 174.234 179.464 174.234 180.859ZM169.484 182.188V180.859C169.484 180.078 169.448 179.417 169.375 178.875C169.312 178.333 169.198 177.901 169.031 177.578C168.875 177.245 168.667 177.005 168.406 176.859C168.146 176.714 167.818 176.641 167.422 176.641C167.016 176.641 166.667 176.724 166.375 176.891C166.083 177.047 165.849 177.281 165.672 177.594C165.495 177.906 165.365 178.297 165.281 178.766C165.208 179.224 165.177 179.76 165.188 180.375V182.891C165.177 183.589 165.234 184.208 165.359 184.75C165.495 185.281 165.729 185.703 166.062 186.016C166.396 186.318 166.859 186.469 167.453 186.469C167.849 186.469 168.177 186.391 168.438 186.234C168.708 186.068 168.917 185.812 169.062 185.469C169.219 185.115 169.328 184.667 169.391 184.125C169.453 183.583 169.484 182.938 169.484 182.188Z" fill="#2196F3"/>
<path d="M171 50.9117C171 89.1631 149.52 121.284 117.246 131.691C111.101 134.065 104.419 135.418 97.4091 135.418C77.5081 135.418 59.0176 124.499 49.665 107.164C33.0665 122.097 28.5957 139.165 28.519 139.494C27.7125 142.787 24.6921 145 21.365 145C20.7996 145 20.2222 144.934 19.6472 144.804C15.6946 143.877 13.2568 139.995 14.2044 136.143C17.1475 124.329 41.9462 68.4326 117.021 68.4326C119.73 68.4374 121.937 66.2841 121.937 63.6522C121.937 61.0204 119.73 58.8671 117.031 58.8671C84.0978 58.8671 60.3024 69.215 43.526 81.477C43.5852 78.241 43.9069 74.9452 44.61 71.5926C48.7405 51.9106 64.8606 36.0029 84.9027 31.457C93.5899 29.4945 101.977 29.6587 109.719 31.4555C126.891 35.4392 145.964 29.2388 155.501 13.1403C157.238 10.201 161.64 10.2943 163.063 13.388C168.148 24.4019 171 37.9021 171 50.9117Z" fill="#2196F3"/>
</g>
<defs>
<clipPath id="clip0_2_8">
<rect width="188" height="201" fill="white"/>
</clipPath>
</defs>
</svg>
